<?xml version="1.0" encoding="utf-8"?><svg fill="none" viewBox="0 0 1280 720" xmlns="http://www.w3.org/2000/svg"><defs><linearGradient id="null" gradientUnits="userSpaceOnUse" spreadMethod="pad" x2="590" y2="-200" x1="-308" y1="232"><stop offset="0%" stop-color="#b1e2ff" /><stop offset="50%" stop-color="#c1eaff" /><stop offset="100%" stop-color="#d0f2ff" /></linearGradient><linearGradient id="null" gradientUnits="userSpaceOnUse" spreadMethod="pad" x2="372" y2="-380" x1="-726" y1="622"><stop offset="1.0999999999999999%" stop-color="#91e0ff" /><stop offset="31.6%" stop-color="#538fff" /><stop offset="62.1%" stop-color="#163eff" /><stop offset="78.4%" stop-color="#2648ff" /><stop offset="94.8%" stop-color="#3651ff" /></linearGradient><linearGradient id="null" gradientUnits="userSpaceOnUse" spreadMethod="pad" x2="100" y2="0" x1="0" y1="0"><stop offset="0.8999999999999999%" stop-color="#00b8ff" /><stop offset="50.4%" stop-color="#35aeff" /><stop offset="100%" stop-color="#69a5ff" /></linearGradient><linearGradient id="null" gradientUnits="userSpaceOnUse" spreadMethod="pad" x2="100" y2="0" x1="0" y1="0"><stop offset="0.8999999999999999%" stop-color="#75d7fe" /><stop offset="50.4%" stop-color="#6fbefe" /><stop offset="100%" stop-color="#69a5ff" /></linearGradient><linearGradient id="null" gradientUnits="userSpaceOnUse" spreadMethod="pad" x2="100" y2="0" x1="0" y1="0"><stop offset="0.8999999999999999%" stop-color="#00b8ff" /><stop offset="50.4%" stop-color="#35aeff" /><stop offset="100%" stop-color="#69a5ff" /></linearGradient><linearGradient id="null" gradientUnits="userSpaceOnUse" spreadMethod="pad" x2="100" y2="0" x1="0" y1="0"><stop offset="0.8999999999999999%" stop-color="#00b8ff" /><stop offset="50.4%" stop-color="#35aeff" /><stop offset="100%" stop-color="#69a5ff" /></linearGradient><linearGradient id="null" gradientUnits="userSpaceOnUse" spreadMethod="pad" x2="100" y2="0" x1="0" y1="0"><stop offset="0.8999999999999999%" stop-color="#00b8ff" /><stop offset="50.4%" stop-color="#35aeff" /><stop offset="100%" stop-color="#69a5ff" /></linearGradient><linearGradient id="null" gradientUnits="userSpaceOnUse" spreadMethod="pad" x2="100" y2="0" x1="0" y1="0"><stop offset="0.8999999999999999%" stop-color="#00b8ff" /><stop offset="50.4%" stop-color="#35aeff" /><stop offset="100%" stop-color="#69a5ff" /></linearGradient></defs><g transform="matrix(1,0,0,1,640,360)" id="Shape Layer 3"><g id="Rectangle 1" transform="matrix(1,0,0,1,-12,-5)"><rect height="782" width="1360" y="0" x="0" stroke-linejoin="miter" stroke-linecap="butt" stroke-width="2" stroke-opacity="1" stroke="#9fd2ff" fill="url(#null)" /></g></g><g transform="matrix(1,0,0,1,640,360)" id="Shape Layer 1"><g id="Shape 1"><path fill="url(#null)" d="M90,-388L-668,-388L-668,418C-668,418,-436,544,-350,404C-264,264,-187.081,258.164,-100.001,194C90,54,-93.534,-57.079,37.863,-160.033C168,-262,90,-388,90,-388Z" /></g></g><g transform="matrix(1,0,0,1,640,360)" id="Shape Layer 2"><g id="Shape 1"><path stroke-linejoin="miter" stroke-linecap="butt" stroke-width="2" stroke-opacity="1" stroke="#9fd2ff" d="M-706,354C-706,354,-529.893,467.106,-442,364C-338,242,-260.999,223.349,-156.001,174C44,80,-74.318,-58.534,40,-126C162,-198,180,-304,139.999,-380C74.574,-504.305,-2,-484,10,-526" /></g></g><g id="Shape Layer 4"><g transform="translate(215,413)"><animateTransform repeatCount="indefinite" type="translate" attributeName="transform" dur="5.005s" begin="0s" calcMode="spline" values="215 413; 195 413; 202.395 433; 228.445 423.4; 215 413" keyTimes="0; 0.207; 0.5; 0.74; 1" keySplines="0 0 1 1; 0 0 1 1; 0 0 1 1; 0 0 1 1" fill="freeze" /><g transform="scale(0.72,0.72) translate(513,37)"><g id="Ellipse 1" transform="matrix(1,0,0,1,-513,-37)"><ellipse ry="15" rx="15" cy="0" cx="0" fill="url(#null)" /></g></g></g></g><g id="Shape Layer 5"><g transform="translate(71,663)"><animateTransform repeatCount="indefinite" type="translate" attributeName="transform" dur="5.005s" begin="0s" calcMode="spline" values="71 663; 91 663; 71 663" keyTimes="0; 0.393; 1" keySplines="0 0 1 1; 0 0 1 1" fill="freeze" /><g transform="scale(0.49,0.49) translate(513,37)"><g id="Ellipse 1" transform="matrix(1,0,0,1,-513,-37)"><ellipse ry="15" rx="15" cy="0" cx="0" fill="url(#null)" /></g></g></g></g><g id="Shape Layer 6"><g transform="translate(469,639)"><animateTransform repeatCount="indefinite" type="translate" attributeName="transform" dur="5.005s" begin="0s" calcMode="spline" values="469 639; 469 619; 449 619; 469 639" keyTimes="0; 0.307; 0.64; 1" keySplines="0 0 1 1; 0 0 1 1; 0 0 1 1" fill="freeze" /><g transform="scale(0.54,0.54) translate(513,37)"><g id="Ellipse 1" transform="matrix(1,0,0,1,-513,-37)"><ellipse ry="15" rx="15" cy="0" cx="0" fill="url(#null)" /></g></g></g></g><g transform="matrix(0.36,0,0,0.36,557.68,632.32)" id="Shape Layer 9"><g id="Ellipse 1" transform="matrix(1,0,0,1,-513,-37)"><ellipse ry="15" rx="15" cy="0" cx="0" fill="url(#null)" /></g></g><g id="Shape Layer 7"><g transform="translate(319,139)"><animateTransform repeatCount="indefinite" type="translate" attributeName="transform" dur="5.005s" begin="0s" calcMode="spline" values="319 139; 319 119; 299 119; 299 139; 299 159; 319 139" keyTimes="0; 0.153; 0.367; 0.64; 0.833; 1" keySplines="0 0 1 1; 0 0 1 1; 0 0 1 1; 0 0 1 1; 0 0 1 1" fill="freeze" /><g transform="scale(0.74,0.74) translate(513,37)"><g id="Ellipse 1" transform="matrix(1,0,0,1,-513,-37)"><ellipse ry="15" rx="15" cy="0" cx="0" fill="url(#null)" /></g></g></g></g><g id="Shape Layer 8"><g transform="translate(101,67)"><animateTransform repeatCount="indefinite" type="translate" attributeName="transform" dur="5.005s" begin="0s" calcMode="spline" values="101 67; 101 107; 121 107; 121 87; 101 87; 101 67" keyTimes="0; 0.193; 0.393; 0.6; 0.773; 1" keySplines="0 0 1 1; 0 0 1 1; 0 0 1 1; 0 0 1 1; 0 0 1 1" fill="freeze" /><g transform="scale(0.36,0.36) translate(513,37)"><g id="Ellipse 1" transform="matrix(1,0,0,1,-513,-37)"><ellipse ry="15" rx="15" cy="0" cx="0" fill="url(#null)" /></g></g></g></g></svg>